<?xml version="1.0" encoding="utf-8"?>
<!-- Generator: Adobe Illustrator 22.1.0, SVG Export Plug-In . SVG Version: 6.00 Build 0)  -->
<svg version="1.1" id="Layer_1" xmlns="http://www.w3.org/2000/svg" xmlns:xlink="http://www.w3.org/1999/xlink" x="0px" y="0px"
	 viewBox="0 0 1065.8 316.1" style="enable-background:new 0 0 1065.8 316.1;" xml:space="preserve">
<style type="text/css">
	.st0{fill:#FFFFFF;}
	.st1{fill:#864C7D;}
</style>
<g>
	<g>
		<path class="st0" d="M298.7,316.1c9.6,0,17.4-7.8,17.4-17.4V17.4c0-9.6-7.8-17.4-17.4-17.4H17.4C7.8,0,0,7.8,0,17.4v281.2
			c0,9.6,7.8,17.4,17.4,17.4L298.7,316.1L298.7,316.1z"/>
		<path class="st1" d="M218.1,316.1V193.7h41.1l6.2-47.7h-47.2v-30.5c0-13.8,3.8-23.2,23.6-23.2l25.3,0V49.6
			c-4.4-0.6-19.4-1.9-36.8-1.9c-36.4,0-61.4,22.2-61.4,63.1V146h-41.2v47.7h41.2v122.4L218.1,316.1L218.1,316.1z"/>
	</g>
	<path class="st0" d="M481.6,158.1c0-29.1,23.6-52.7,52.7-52.7c29.1,0,52.7,23.6,52.7,52.7s-23.6,52.7-52.7,52.7
		C505.1,210.8,481.6,187.2,481.6,158.1 M453.1,158.1c0,44.8,36.3,81.2,81.2,81.2c44.8,0,81.2-36.3,81.2-81.2s-36.3-81.2-81.2-81.2
		C489.4,76.9,453.1,113.2,453.1,158.1 M599.6,73.7c0,10.5,8.5,19,19,19c10.5,0,19-8.5,19-19s-8.5-19-19-19
		C608.1,54.7,599.6,63.2,599.6,73.7 M470.4,286.7c-15.4-0.7-23.8-3.3-29.4-5.4c-7.4-2.9-12.6-6.3-18.2-11.8
		c-5.5-5.5-9-10.8-11.8-18.2c-2.2-5.6-4.7-13.9-5.4-29.4c-0.8-16.7-0.9-21.7-0.9-63.9s0.2-47.2,0.9-63.9c0.7-15.4,3.3-23.8,5.4-29.4
		c2.9-7.4,6.3-12.6,11.8-18.2c5.5-5.5,10.8-9,18.2-11.8c5.6-2.2,13.9-4.7,29.4-5.4c16.7-0.8,21.7-0.9,63.9-0.9
		c42.2,0,47.2,0.2,63.9,0.9c15.4,0.7,23.8,3.3,29.4,5.4c7.4,2.9,12.6,6.3,18.2,11.8c5.5,5.5,9,10.8,11.8,18.2
		c2.2,5.6,4.7,13.9,5.4,29.4c0.8,16.7,0.9,21.7,0.9,63.9c0,42.2-0.2,47.2-0.9,63.9c-0.7,15.4-3.3,23.8-5.4,29.4
		c-2.9,7.4-6.3,12.6-11.8,18.2c-5.5,5.5-10.8,9-18.2,11.8c-5.6,2.2-13.9,4.7-29.4,5.4c-16.7,0.8-21.7,0.9-63.9,0.9
		C492,287.6,487,287.5,470.4,286.7 M469.1,1c-16.8,0.8-28.3,3.4-38.4,7.3c-10.4,4-19.2,9.4-28,18.2c-8.8,8.8-14.2,17.6-18.2,28
		c-3.9,10-6.6,21.5-7.3,38.4c-0.8,16.9-1,22.2-1,65.2s0.2,48.3,1,65.2c0.8,16.8,3.4,28.3,7.3,38.4c4,10.4,9.4,19.2,18.2,28
		c8.8,8.8,17.6,14.2,28,18.2c10.1,3.9,21.5,6.6,38.4,7.3c16.9,0.8,22.2,1,65.2,1c42.9,0,48.3-0.2,65.2-1c16.8-0.8,28.3-3.4,38.4-7.3
		c10.4-4,19.2-9.4,28-18.2c8.8-8.8,14.2-17.6,18.2-28c3.9-10,6.6-21.5,7.3-38.4c0.8-16.9,0.9-22.2,0.9-65.2s-0.2-48.3-0.9-65.2
		c-0.8-16.8-3.4-28.3-7.3-38.4c-4-10.4-9.4-19.2-18.2-28c-8.8-8.8-17.6-14.2-28-18.2c-10.1-3.9-21.6-6.6-38.4-7.3
		c-16.9-0.8-22.2-1-65.2-1C491.3,0,485.9,0.2,469.1,1"/>
	<g>
		<path class="st0" d="M749.6,56.7v202.6c0,31.3,25.5,56.7,56.7,56.7H1009c31.3,0,56.7-25.5,56.7-56.7V56.7
			c0-31.3-25.5-56.7-56.7-56.7H806.4C775.1,0,749.6,25.5,749.6,56.7z"/>
		<path class="st1" d="M767.5,65.2c0-26.1,21.2-47.4,47.4-47.4h185.6c26.2,0,47.4,21.2,47.4,47.4v185.7c0,26.2-21.2,47.4-47.4,47.4
			H814.9c-26.2,0-47.4-21.2-47.4-47.4V65.2L767.5,65.2z M756.9,61.4v193.3c0,29.8,24.3,54.1,54.1,54.1h193.3
			c29.8,0,54.1-24.3,54.1-54.1V61.4c0-29.8-24.3-54.1-54.1-54.1H811C781.2,7.3,756.9,31.6,756.9,61.4z"/>
		<path class="st1" d="M903.4,134.3c8.1-25.2,17.9-41.5,29.2-53.3c8.5-8.8,12.8-11.6,7.9-1.9c2.2-1.8,5.3-4.1,7.8-5.3
			c13.7-6.5,12.7-1,3.3,4.8c25.8-9.2,24.9,2.5-2.4,8.4c22.3,0.4,46,14.6,52.8,44.8c0.9,4.2-0.2,3.8,4.1,4.5
			c9.2,1.6,17.9,1.5,26.4-1.2c-0.9,6.2-9.2,10.3-22,13c-4.8,1-5.7,0.7,0,2c7,1.6,14.9,2,23.2,1.6c-6.5,7.5-16.8,11.3-29.6,11.4
			c-8,29.2-26.3,50.1-49.4,63.2c-54.3,30.8-133.3,26.3-172.9-29.7c26,20.4,64.5,24.9,93.1-3.5c-18.7,0-23.6-14-8.7-21.6
			c-14.1-0.1-23-4.6-28.3-12.7c-2-3.1-2-3.3,1.2-5.6c3.6-2.6,8.4-3.7,13.5-4.1c-14.6-4.2-23.5-11.8-26.6-22c-1-3.4-1.2-3.2,2.3-4.1
			c3.4-0.9,7.7-1.3,11.6-1.5c-11.4-6.9-18.3-15.4-20-24.8c-1.6-8.9,0-6.6,6.7-4.1C856.2,104,885.8,116.2,903.4,134.3L903.4,134.3z"
			/>
	</g>
</g>
</svg>
